<svg height="512pt" viewBox="0 0 512 512" width="512pt" xmlns="http://www.w3.org/2000/svg"><path d="m271 15v61c0 8.398438-6.597656 15-15 15s-15-6.601562-15-15v-61c0-8.402344 6.597656-15 15-15s15 6.597656 15 15zm0 0" fill="#ff637b"/><path d="m256 91v-91c8.402344 0 15 6.597656 15 15v61c0 8.398438-6.597656 15-15 15zm0 0" fill="#e63950"/><path d="m512 406c0 57.898438-48.101562 106-106 106h-300c-57.898438 0-106-48.101562-106-106 0-24.902344 21.097656-45 46-45h421c24.902344 0 45 20.097656 45 45zm0 0" fill="#ffb751"/><path d="m512 406c0 57.898438-48.101562 106-106 106h-150v-151h211c24.902344 0 45 20.097656 45 45zm0 0" fill="#ff9b00"/><path d="m480.199219 400.300781c-9.597657 14.398438-26.199219 22.800781-43.597657 22.800781-17.101562 0-32.703124-8.402343-42.300781-22.800781-8.101562-11.699219-27-11.699219-35.101562 0-9.597657 14.398438-25.199219 22.800781-42.597657 22.800781-17.097656 0-32.699218-8.402343-42.300781-22.800781-4.199219-6-11.101562-9-18.300781-8.703125-6.300781.300782-12.597656 3.300782-16.800781 8.703125-9.597657 14.398438-25.199219 22.800781-42.597657 22.800781-17.097656 0-32.699218-8.402343-42.300781-22.800781-8.097656-11.699219-27-11.699219-35.097656 0-18 27.296875-63.101563 29.097657-83.199219 3.597657-3.601562-2.699219-6-6.898438-6-11.699219v-46.199219c0-24.902344 21.097656-45 46-45h360c24.898438 0 46 20.097656 46 45v42.300781c1.195313 3.898438.597656 8.398438-1.804687 12zm0 0" fill="#9cdd05"/><path d="m482 388.300781c1.199219 3.898438.601562 8.398438-1.800781 12-9.597657 14.398438-26.199219 22.800781-43.597657 22.800781-17.101562 0-32.703124-8.402343-42.300781-22.800781-8.101562-11.699219-27-11.699219-35.101562 0-9.597657 14.398438-25.199219 22.800781-42.597657 22.800781-17.097656 0-32.699218-8.402343-42.300781-22.800781-4.199219-6-11.101562-9-18.300781-8.703125v-90.597656h180c24.902344 0 46 20.097656 46 45zm0 0" fill="#6b0"/><path d="m421 211h-330c-33 0-61 27-61 60s28 60 61 60h330c33 0 61-27 61-60s-28-60-61-60zm0 0" fill="#e63950"/><path d="m482 271c0 33-28 60-61 60h-165v-120h165c33 0 61 27 61 60zm0 0" fill="#ae2538"/><path d="m446.5 236.5-90 90c-2.699219 3-6.601562 4.5-10.5 4.5s-7.800781-1.5-10.5-4.5l-79.5-79.199219-79.5 79.199219c-2.699219 3-6.601562 4.5-10.5 4.5s-7.800781-1.5-10.5-4.5l-90-90c-6-5.699219-6-15.300781 0-21h381c6 5.699219 6 15.300781 0 21zm0 0" fill="#faecd8"/><path d="m335.5 326.5-79.5-79.199219v-31.800781h190.5c6 5.699219 6 15.300781 0 21l-90 90c-2.699219 3-6.601562 4.5-10.5 4.5s-7.800781-1.5-10.5-4.5zm0 0" fill="#f4d7af"/><path d="m512 196c0 24.898438-20.097656 45-45 45h-421c-24.902344 0-46-20.101562-46-45 0-71.101562 56.5-129 126.097656-134.101562l-6.597656 50.699218 40.800781-51.597656h56.398438l-7.199219 51.597656 40.800781-51.597656h56.398438l-7.199219 51.597656 40.800781-51.597656h35.699219c6.898438 0 13.199219.898438 19.800781 2.101562l-6.300781 49.496094 36-41.996094c49.800781 19.796876 86.5 68.398438 86.5 125.398438zm0 0" fill="#ffb751"/><g fill="#ff9b00"><path d="m512 196c0 24.898438-20.097656 45-45 45h-211v-180h50.699219l-7.199219 51.597656 40.800781-51.597656h35.699219c6.898438 0 13.199219.898438 19.800781 2.101562l-6.300781 49.496094 36-41.996094c49.800781 19.796876 86.5 68.398438 86.5 125.398438zm0 0"/><path d="m99.289062 149.417969c7.480469 3.714843 16.4375.652343 20.128907-6.707031l40.859375-81.710938h-24.277344c-3.34375 0-6.480469.746094-9.761719.988281l-33.65625 67.300781c-3.707031 7.414063-.703125 16.421876 6.707031 20.128907zm0 0"/><path d="m189.289062 149.417969c7.480469 3.714843 16.4375.652343 20.128907-6.707031l40.859375-81.710938h-33.546875l-34.148438 68.289062c-3.707031 7.414063-.703125 16.421876 6.707031 20.128907zm0 0"/></g><path d="m279.289062 149.417969c7.515626 3.730469 16.480469.609375 20.128907-6.707031l40.851562-81.710938h-33.546875l-34.140625 68.289062c-3.707031 7.414063-.703125 16.421876 6.707031 20.128907zm0 0" fill="#ff8900"/><path d="m369.289062 149.417969c7.480469 3.714843 16.4375.652343 20.128907-6.707031l36.019531-72.039063c-9.417969-3.730469-19.398438-6.148437-29.707031-7.679687l-33.148438 66.296874c-3.707031 7.414063-.703125 16.421876 6.707031 20.128907zm0 0" fill="#ff8900"/></svg>